<?xml version="1.0" encoding="utf-8"?>
<!-- Generator: Adobe Illustrator 19.0.0, SVG Export Plug-In . SVG Version: 6.00 Build 0)  -->
<svg version="1.1" id="Layer_1" xmlns="http://www.w3.org/2000/svg" xmlns:xlink="http://www.w3.org/1999/xlink" x="0px" y="0px"
	 viewBox="0 0 886.4 123.2" style="enable-background:new 0 0 886.4 123.2;" xml:space="preserve">
<style type="text/css">
	.st0{fill:#5E97FC;}
	.st1{fill:#FFFFFF;}
</style>
<path class="st0" d="M0,23.6h8.7V4.9L24,0.6v22.9h12.2v14.3H24v27.9c0,7.6,1.8,11.1,6.3,13.7l8.2,4.7l-6.8,12
	C16.1,88.7,8.7,83.3,8.7,68.6V37.9H0V23.6z"/>
<path class="st0" d="M101.9,85.6h-0.3c-4.9,6.4-13.7,10.5-23.4,10.5c-23.4,0-37-19-37-37.2c0-17.4,14.6-37.3,37.7-37.3
	c10.6,0,18.7,4.5,22.7,10.5h0.3v-8.6h15.3v70.7h-15.3V85.6z M80.1,81.8c12.1,0,22.4-10.2,22.4-22.9c0-12.7-10.3-23-22.4-23
	c-12.4,0-22.7,10.2-22.7,23C57.4,71.6,67.8,81.8,80.1,81.8z"/>
<path class="st0" d="M127.3,23.6h14.4v7.7h0.3c2.5-5.8,7.8-9.6,14-9.6c3.4,0,6.3,0.9,8.4,2.2l-5.5,15c-1.5-1.2-4.3-2.1-5.7-2.1
	c-5.6,0-10.6,4.2-10.6,10.7v46.8h-15.3V23.6z"/>
<path class="st0" d="M234.9,86.4c0,23.4-18,36.8-37.3,36.8c-9.9,0-22-4.1-30.1-14l12.5-9.1c2.9,4.1,9.6,8.8,16.8,8.8
	c15.6,0,23.6-10.1,23.6-20.9v-4.7c-6.5,7.2-13.8,11-24.3,11c-18.4,0-34.6-13.7-34.6-36.1c0-23.2,17.4-36.5,36.4-36.5
	c9.6,0,17.2,3.6,22.2,10.2h0.3v-8.3h14.4V86.4z M199.2,79.9c12.4,0,21.2-9.8,21.2-21.9c0-12.3-9.6-22.1-21.2-22.1
	c-11.9,0-21.5,9.8-21.5,21.9C177.7,70.2,186.2,79.9,199.2,79.9z"/>
<path class="st0" d="M317.7,67.5c-4.8,12.7-14,22.5-26.2,26.5c-23.7,7.6-43.2-5.6-49-23.5c-5.8-17.8,2.2-39.8,25.9-47.4
	c14.2-4.5,38.9,0.2,47.5,26.5l0.9,2.6l-56.3,18.1c4.2,10,16.3,14.3,26.5,11c7.9-2.5,13.4-8.4,16.2-16.7L317.7,67.5z M295.8,45.8
	c-6.4-9.3-15.9-12.3-25.2-9.3c-9.3,3-15,11.1-14.1,21.9L295.8,45.8z"/>
<path class="st0" d="M317.6,23.6h8.7V4.9l15.3-4.2v22.9h12.2v14.3h-12.2v27.9c0,7.6,1.8,11.1,6.3,13.7l8.3,4.7l-6.8,12
	c-15.8-7.4-23.1-12.9-23.1-27.6V37.9h-8.7V23.6z"/>
<path class="st0" d="M432.4,68c-5,12.7-14.4,22.3-26.6,26.1c-23.8,7.3-43.1-6.3-48.6-24.1c-5.6-17.9,2.8-39.8,26.6-47.1
	c14.2-4.3,38.9,0.8,47.1,27.2l0.8,2.6l-56.6,17.3c4,10.1,16.1,14.5,26.3,11.4c7.9-2.4,13.5-8.2,16.5-16.5L432.4,68z M410.8,46
	c-6.3-9.4-15.7-12.5-25-9.6c-9.3,2.8-15.1,10.9-14.4,21.7L410.8,46z"/>
<path class="st0" d="M497.6,85.6h-0.3c-4.9,6.4-13.7,10.5-23.4,10.5c-23.4,0-37-19-37-37.2c0-17.4,14.6-37.3,37.7-37.3
	c10.6,0,18.7,4.5,22.7,10.5h0.3V2.5h15.3v91.8h-15.3V85.6z M475.8,81.8c12.1,0,22.4-10.2,22.4-22.9c0-12.7-10.3-23-22.4-23
	c-12.4,0-22.7,10.2-22.7,23C453.1,71.6,463.4,81.8,475.8,81.8z"/>
<g id="XMLID_25_">
	<path id="XMLID_41_" class="st1" d="M533,72c5.4,5.8,14.2,10.3,22,10.3c8.7,0,13.9-4.9,13.9-8.8c0-4.6-3.6-7.1-9.1-8.1l-8.6-1.6
		c-19.7-3.6-25.2-10-25.2-20c0-11.9,10-22.9,27.5-22.9c9.7,0,18.3,2.9,27.8,9.7l-8.5,10.6c-7.4-6.2-13.9-7.8-18.8-7.8
		c-6.5,0-12.9,3.2-12.9,8.8c0,4.2,3.3,6.4,9.1,7.4l15.2,2.9c12.5,2.3,18.5,8.3,18.5,18.7c0,10.3-8.4,23.6-29.7,23.6
		c-11.9,0-22-4.2-31.6-12.3L533,72z"/>
	<path id="XMLID_39_" class="st1" d="M729.5,45.7c-4.1-6.2-9.7-10.6-18.3-10.6c-13.2,0-22.8,10.1-22.8,22.8
		c0,12.6,9.6,22.8,22.8,22.8c8.3,0,14.2-4.2,18.3-10.6l13.2,7.8c-6.2,9.9-18.1,17-31.4,17c-24.5,0-38.7-18.4-38.7-37
		c0-18.6,14.2-37,38.7-37c14.9,0,24.6,7.1,31.4,17L729.5,45.7z"/>
	<path id="XMLID_36_" class="st1" d="M757.3,0c4.6,0,8.4,3.8,8.4,8.4c0,4.6-3.8,8.4-8.4,8.4s-8.4-3.8-8.4-8.4
		C748.9,3.8,752.7,0,757.3,0z M749.8,22.8h15.1v70.2h-15.1V22.8z"/>
	<path id="XMLID_33_" class="st1" d="M831.7,84.4h-0.3c-4.8,6.4-13.5,10.4-23,10.4c-23,0-36.4-18.8-36.4-37c0-17.3,14.3-37,37.1-37
		c10.4,0,18.4,4.5,22.3,10.4h0.3v-8.6h15.1v70.2h-15.1V84.4z M810.2,80.6c11.9,0,22-10.1,22-22.8c0-12.6-10.1-22.8-22-22.8
		c-12.2,0-22.3,10.1-22.3,22.8C787.9,70.4,798,80.6,810.2,80.6z"/>
	<path id="XMLID_31_" class="st1" d="M872,1.9v62.8c0,8.1,1.7,11,6.2,13.6l8.1,4.6l-6.7,11.9C864.2,87.4,857,82,857,67.4V1.9H872z"
		/>
	<g id="XMLID_26_">
		<path id="XMLID_28_" class="st0" d="M666.3,58.1c0,20.6-17.1,37.2-38.3,37.2c-21.1,0-38.3-16.7-38.3-37.2
			c0-20.6,17.1-37.2,38.3-37.2C649.2,20.9,666.3,37.5,666.3,58.1z M628,33.5c-14,0-25.3,11-25.3,24.6c0,13.6,11.3,24.6,25.3,24.6
			c14,0,25.3-11,25.3-24.6C653.4,44.5,642,33.5,628,33.5z"/>
		<ellipse id="XMLID_1_" class="st1" cx="628" cy="58.1" rx="12.9" ry="12.6"/>
	</g>
</g>
</svg>
