<?xml version="1.0" encoding="utf-8"?>
<!-- Generator: Adobe Illustrator 19.0.0, SVG Export Plug-In . SVG Version: 6.00 Build 0)  -->
<svg version="1.1" id="Layer_1" xmlns="http://www.w3.org/2000/svg" xmlns:xlink="http://www.w3.org/1999/xlink" x="0px" y="0px"
	 viewBox="0 0 300 50" style="enable-background:new 0 0 300 50;" xml:space="preserve">
<style type="text/css">
	.st0{fill:#777678;}
	.st1{fill:#3A3A3A;}
	.st2{fill:url(#XMLID_266_);}
	.st3{fill:#FFFFFF;}
	.st4{fill-rule:evenodd;clip-rule:evenodd;fill:#416CB4;}
	.st5{fill-rule:evenodd;clip-rule:evenodd;fill:#FFFFFF;}
	.st6{fill-rule:evenodd;clip-rule:evenodd;}
	.st7{fill:url(#XMLID_267_);}
	.st8{fill:url(#XMLID_268_);}
	.st9{fill:url(#XMLID_269_);}
	.st10{fill:url(#XMLID_270_);}
	.st11{fill:url(#XMLID_271_);}
	.st12{fill-rule:evenodd;clip-rule:evenodd;fill:#8DC63F;}
</style>
<path id="XMLID_251_" class="st0" d="M1.5,10.4h2.8v-6L9.1,3v7.3H13V15H9.1v8.9c0,2.4,0.6,3.6,2,4.4l2.6,1.5l-2.2,3.8
	c-5-2.4-7.3-4.1-7.3-8.8V15H1.5V10.4z"/>
<path id="XMLID_248_" class="st0" d="M33.9,30.3L33.9,30.3c-1.6,2.1-4.4,3.4-7.5,3.4c-7.4,0-11.7-6.1-11.7-11.9
	c0-5.6,4.6-11.9,12-11.9c3.4,0,5.9,1.4,7.2,3.4h0.1v-2.8h4.9V33h-4.9V30.3z M27,29c3.8,0,7.1-3.3,7.1-7.3c0-4.1-3.3-7.3-7.1-7.3
	c-3.9,0-7.2,3.3-7.2,7.3C19.8,25.8,23,29,27,29z"/>
<path id="XMLID_246_" class="st0" d="M42,10.4h4.6v2.5h0.1c0.8-1.9,2.5-3.1,4.4-3.1c1.1,0,2,0.3,2.7,0.7L52,15.3
	c-0.5-0.4-1.4-0.7-1.8-0.7c-1.8,0-3.4,1.4-3.4,3.4v15H42V10.4z"/>
<path id="XMLID_243_" class="st0" d="M76.1,30.5c0,7.5-5.7,11.8-11.8,11.8c-3.1,0-7-1.3-9.5-4.5l4-2.9c0.9,1.3,3,2.8,5.3,2.8
	c5,0,7.5-3.2,7.5-6.7v-1.5c-2.1,2.3-4.4,3.5-7.7,3.5c-5.9,0-11-4.4-11-11.6c0-7.4,5.5-11.7,11.6-11.7c3,0,5.5,1.2,7.1,3.3h0.1v-2.7
	h4.6V30.5z M64.8,28.4c3.9,0,6.7-3.1,6.7-7c0-3.9-3-7.1-6.7-7.1c-3.8,0-6.8,3.1-6.8,7C57.9,25.3,60.7,28.4,64.8,28.4z"/>
<path id="XMLID_240_" class="st0" d="M102.4,24.4c-1.5,4.1-4.5,7.2-8.3,8.5c-7.5,2.4-13.7-1.8-15.6-7.5c-1.8-5.7,0.7-12.8,8.2-15.2
	c4.5-1.5,12.4,0.1,15.1,8.5l0.3,0.8l-17.9,5.8c1.3,3.2,5.2,4.6,8.4,3.5c2.5-0.8,4.2-2.7,5.2-5.4L102.4,24.4z M95.4,17.5
	c-2-3-5.1-3.9-8-3c-2.9,1-4.8,3.6-4.5,7L95.4,17.5z"/>
<path id="XMLID_238_" class="st0" d="M102.4,10.4h2.8v-6L110,3v7.3h3.9V15H110v8.9c0,2.4,0.6,3.6,2,4.4l2.6,1.5l-2.2,3.8
	c-5-2.4-7.3-4.1-7.3-8.8V15h-2.8V10.4z"/>
<path id="XMLID_235_" class="st0" d="M138.8,24.6c-1.6,4.1-4.6,7.1-8.4,8.4c-7.6,2.3-13.7-2-15.4-7.7c-1.8-5.7,0.9-12.7,8.4-15.1
	c4.5-1.4,12.4,0.3,15,8.7l0.3,0.8l-18,5.5c1.3,3.2,5.1,4.6,8.4,3.6c2.5-0.8,4.3-2.6,5.2-5.3L138.8,24.6z M132,17.6c-2-3-5-4-8-3.1
	c-2.9,0.9-4.8,3.5-4.6,6.9L132,17.6z"/>
<path id="XMLID_232_" class="st0" d="M159.5,30.3L159.5,30.3c-1.6,2.1-4.4,3.4-7.5,3.4c-7.4,0-11.7-6.1-11.7-11.9
	c0-5.6,4.6-11.9,12-11.9c3.4,0,5.9,1.4,7.2,3.4h0.1V3.6h4.9V33h-4.9V30.3z M152.6,29c3.8,0,7.1-3.3,7.1-7.3c0-4.1-3.3-7.3-7.1-7.3
	c-3.9,0-7.2,3.3-7.2,7.3C145.4,25.8,148.7,29,152.6,29z"/>
<path id="XMLID_230_" class="st1" d="M178.9,26.3c1.7,1.9,4.6,3.3,7.1,3.3c2.8,0,4.5-1.6,4.5-2.9c0-1.5-1.2-2.3-2.9-2.6l-2.8-0.5
	c-6.4-1.2-8.1-3.2-8.1-6.5c0-3.8,3.2-7.4,8.9-7.4c3.1,0,5.9,0.9,9,3.1l-2.8,3.4c-2.4-2-4.5-2.5-6.1-2.5c-2.1,0-4.2,1-4.2,2.9
	c0,1.4,1.1,2.1,2.9,2.4l4.9,0.9c4,0.8,6,2.7,6,6c0,3.3-2.7,7.6-9.6,7.6c-3.8,0-7.1-1.4-10.2-4L178.9,26.3z"/>
<path id="XMLID_228_" class="st1" d="M249.4,17.8c-1.3-2-3.1-3.4-5.9-3.4c-4.3,0-7.3,3.3-7.3,7.3c0,4.1,3.1,7.3,7.3,7.3
	c2.7,0,4.6-1.4,5.9-3.4l4.3,2.5c-2,3.2-5.8,5.5-10.2,5.5c-7.9,0-12.5-5.9-12.5-11.9s4.6-11.9,12.5-11.9c4.8,0,8,2.3,10.2,5.5
	L249.4,17.8z"/>
<path id="XMLID_225_" class="st1" d="M258.4,3c1.5,0,2.7,1.2,2.7,2.7c0,1.5-1.2,2.7-2.7,2.7c-1.5,0-2.7-1.2-2.7-2.7
	C255.7,4.2,256.9,3,258.4,3z M256,10.4h4.9V33H256V10.4z"/>
<path id="XMLID_222_" class="st1" d="M282.4,30.3L282.4,30.3c-1.6,2.1-4.4,3.4-7.5,3.4c-7.4,0-11.7-6.1-11.7-11.9
	c0-5.6,4.6-11.9,12-11.9c3.4,0,5.9,1.4,7.2,3.4h0.1v-2.8h4.9V33h-4.9V30.3z M275.5,29c3.8,0,7.1-3.3,7.1-7.3c0-4.1-3.3-7.3-7.1-7.3
	c-3.9,0-7.2,3.3-7.2,7.3C268.3,25.8,271.6,29,275.5,29z"/>
<path id="XMLID_220_" class="st1" d="M295.4,3.6v20.3c0,2.6,0.6,3.6,2,4.4l2.6,1.5l-2.2,3.8c-5-2.4-7.3-4.1-7.3-8.8V3.6H295.4z"/>
<radialGradient id="XMLID_266_" cx="39.2182" cy="242.3692" r="8.21" gradientTransform="matrix(3.6873 6.250000e-02 -1.330000e-02 0.7834 72.1477 -151.8916)" gradientUnits="userSpaceOnUse">
	<stop  offset="0" style="stop-color:#616161"/>
	<stop  offset="1" style="stop-color:#FFFFFF;stop-opacity:0"/>
</radialGradient>
<path id="XMLID_219_" class="st2" d="M243.8,40.9c-0.1,3.6-13.7,6.2-30.4,5.9c-16.7-0.3-30.2-3.4-30.2-6.9
	c0.1-3.6,13.7-6.2,30.4-5.9C230.4,34.3,243.9,37.4,243.8,40.9z"/>
<path id="XMLID_218_" class="st3" d="M225.9,17c5.4,11,4.2,22.7-2.6,26c-6.8,3.3-16.7-2.9-22.1-14c-5.4-11-4.2-22.7,2.5-26
	C210.6-0.3,220.5,6,225.9,17z"/>
<path id="XMLID_217_" class="st4" d="M226.2,17.1c5.5,10.9,4.8,22.3-1.5,25.4c-6.3,3.1-15.8-3.2-21.2-14.1
	C198.1,17.5,198.7,6.1,205,3C211.3-0.1,220.8,6.2,226.2,17.1L226.2,17.1z"/>
<path id="XMLID_216_" class="st5" d="M223.6,38.1c-4.9,2.5-12.4-2.6-16.8-11.3c-4.3-8.7-3.9-17.7,1-20.2c4.9-2.5,12.4,2.6,16.8,11.3
	C229,26.6,228.5,35.6,223.6,38.1z"/>
<path id="XMLID_215_" class="st6" d="M219.1,44c-6.2-0.1-14.3-5.6-18.9-14.7c-5.6-11.2-4-23.3,2.7-26.6c1.6-0.8,3.4-1,5.3-0.8
	c-1.4-0.2-3.1,0.2-4.3,0.9c-6.7,3.3-7.5,15.1-2,26.2C206.2,37.6,213,43.3,219.1,44C219,44,219.1,44,219.1,44z"/>
<path id="XMLID_213_" class="st3" d="M1.4,9.3h2.8v-6L9,1.9v7.3h3.9v4.6H9v8.9c0,2.4,0.6,3.6,2,4.4l2.6,1.5l-2.2,3.8
	c-5-2.4-7.3-4.1-7.3-8.8v-9.8H1.4V9.3z"/>
<path id="XMLID_210_" class="st3" d="M33.8,29.1L33.8,29.1c-1.6,2.1-4.4,3.4-7.5,3.4c-7.4,0-11.7-6.1-11.7-11.9
	c0-5.6,4.6-11.9,12-11.9c3.4,0,5.9,1.4,7.2,3.4h0.1V9.3h4.9v22.6h-4.9V29.1z M26.8,27.9c3.8,0,7.1-3.3,7.1-7.3
	c0-4.1-3.3-7.3-7.1-7.3c-3.9,0-7.2,3.3-7.2,7.3C19.6,24.7,22.9,27.9,26.8,27.9z"/>
<path id="XMLID_208_" class="st3" d="M41.8,9.3h4.6v2.5h0.1C47.3,9.9,49,8.7,51,8.7c1.1,0,2,0.3,2.7,0.7l-1.7,4.8
	c-0.5-0.4-1.4-0.7-1.8-0.7c-1.8,0-3.4,1.4-3.4,3.4v15h-4.9V9.3z"/>
<path id="XMLID_205_" class="st3" d="M76,29.4c0,7.5-5.7,11.8-11.8,11.8c-3.1,0-7-1.3-9.5-4.5l4-2.9c0.9,1.3,3,2.8,5.3,2.8
	c5,0,7.5-3.2,7.5-6.7v-1.5c-2.1,2.3-4.4,3.5-7.7,3.5c-5.9,0-11-4.4-11-11.6c0-7.4,5.5-11.7,11.6-11.7c3,0,5.5,1.2,7.1,3.3h0.1V9.3
	H76V29.4z M64.7,27.3c3.9,0,6.7-3.1,6.7-7c0-3.9-3-7.1-6.7-7.1c-3.8,0-6.8,3.1-6.8,7C57.8,24.2,60.5,27.3,64.7,27.3z"/>
<path id="XMLID_202_" class="st3" d="M102.3,23.3c-1.5,4.1-4.5,7.2-8.3,8.5c-7.5,2.4-13.7-1.8-15.6-7.5c-1.8-5.7,0.7-12.8,8.2-15.2
	c4.5-1.5,12.4,0.1,15.1,8.5l0.3,0.8l-17.9,5.8c1.3,3.2,5.2,4.6,8.4,3.5c2.5-0.8,4.2-2.7,5.2-5.4L102.3,23.3z M95.3,16.4
	c-2-3-5.1-3.9-8-3c-2.9,1-4.8,3.6-4.5,7L95.3,16.4z"/>
<path id="XMLID_200_" class="st3" d="M102.3,9.3h2.8v-6l4.9-1.4v7.3h3.9v4.6h-3.9v8.9c0,2.4,0.6,3.6,2,4.4l2.6,1.5l-2.2,3.8
	c-5-2.4-7.3-4.1-7.3-8.8v-9.8h-2.8V9.3z"/>
<path id="XMLID_197_" class="st3" d="M138.7,23.5c-1.6,4.1-4.6,7.1-8.4,8.4c-7.6,2.3-13.7-2-15.4-7.7c-1.8-5.7,0.9-12.8,8.4-15.1
	c4.5-1.4,12.4,0.3,15,8.7l0.3,0.8l-18,5.5c1.3,3.2,5.1,4.6,8.4,3.6c2.5-0.8,4.3-2.6,5.2-5.3L138.7,23.5z M131.8,16.5c-2-3-5-4-8-3.1
	c-2.9,0.9-4.8,3.5-4.6,6.9L131.8,16.5z"/>
<path id="XMLID_194_" class="st3" d="M159.4,29.1L159.4,29.1c-1.6,2.1-4.4,3.4-7.5,3.4c-7.4,0-11.7-6.1-11.7-11.9
	c0-5.6,4.6-11.9,12-11.9c3.4,0,5.9,1.4,7.2,3.4h0.1V2.5h4.9v29.4h-4.9V29.1z M152.5,27.9c3.8,0,7.1-3.3,7.1-7.3
	c0-4.1-3.3-7.3-7.1-7.3c-3.9,0-7.2,3.3-7.2,7.3C145.3,24.7,148.6,27.9,152.5,27.9z"/>
<linearGradient id="XMLID_267_" gradientUnits="userSpaceOnUse" x1="182.3377" y1="9.0406" x2="187.7338" y2="32.4137">
	<stop  offset="0" style="stop-color:#93B5DF"/>
	<stop  offset="0.5424" style="stop-color:#6688C5"/>
	<stop  offset="1" style="stop-color:#416CB4"/>
</linearGradient>
<path id="XMLID_192_" class="st7" d="M178.8,25.2c1.7,1.9,4.6,3.3,7.1,3.3c2.8,0,4.5-1.6,4.5-2.9c0-1.5-1.2-2.3-2.9-2.6l-2.8-0.5
	c-6.4-1.2-8.1-3.2-8.1-6.5c0-3.8,3.2-7.4,8.9-7.4c3.1,0,5.9,0.9,9,3.1l-2.8,3.4c-2.4-2-4.5-2.5-6.1-2.5c-2.1,0-4.2,1-4.2,2.9
	c0,1.4,1.1,2.1,2.9,2.4l4.9,0.9c4,0.7,6,2.7,6,6c0,3.3-2.7,7.6-9.6,7.6c-3.8,0-7.1-1.4-10.2-4L178.8,25.2z"/>
<linearGradient id="XMLID_268_" gradientUnits="userSpaceOnUse" x1="240.1811" y1="9.0214" x2="245.5655" y2="32.344">
	<stop  offset="0" style="stop-color:#93B5DF"/>
	<stop  offset="0.5424" style="stop-color:#6688C5"/>
	<stop  offset="1" style="stop-color:#416CB4"/>
</linearGradient>
<path id="XMLID_190_" class="st8" d="M249.3,16.7c-1.3-2-3.1-3.4-5.9-3.4c-4.3,0-7.3,3.3-7.3,7.3c0,4.1,3.1,7.3,7.3,7.3
	c2.7,0,4.6-1.4,5.9-3.4l4.3,2.5c-2,3.2-5.8,5.5-10.2,5.5c-7.9,0-12.5-5.9-12.5-11.9s4.6-11.9,12.5-11.9c4.8,0,8,2.3,10.2,5.5
	L249.3,16.7z"/>
<linearGradient id="XMLID_269_" gradientUnits="userSpaceOnUse" x1="254.8657" y1="2.6418" x2="261.5777" y2="31.7147">
	<stop  offset="0" style="stop-color:#93B5DF"/>
	<stop  offset="0.5424" style="stop-color:#6688C5"/>
	<stop  offset="1" style="stop-color:#416CB4"/>
</linearGradient>
<path id="XMLID_187_" class="st9" d="M258.3,1.9c1.5,0,2.7,1.2,2.7,2.7c0,1.5-1.2,2.7-2.7,2.7c-1.5,0-2.7-1.2-2.7-2.7
	C255.6,3.1,256.8,1.9,258.3,1.9z M255.9,9.3h4.9v22.6h-4.9V9.3z"/>
<linearGradient id="XMLID_270_" gradientUnits="userSpaceOnUse" x1="273.4939" y1="8.6851" x2="279.2764" y2="33.7318">
	<stop  offset="0" style="stop-color:#93B5DF"/>
	<stop  offset="0.5424" style="stop-color:#6688C5"/>
	<stop  offset="1" style="stop-color:#416CB4"/>
</linearGradient>
<path id="XMLID_184_" class="st10" d="M282.3,29.1L282.3,29.1c-1.6,2.1-4.4,3.4-7.5,3.4c-7.4,0-11.7-6.1-11.7-11.9
	c0-5.6,4.6-11.9,12-11.9c3.4,0,5.9,1.4,7.2,3.4h0.1V9.3h4.9v22.6h-4.9V29.1z M275.4,27.9c3.8,0,7.1-3.3,7.1-7.3
	c0-4.1-3.3-7.3-7.1-7.3c-3.9,0-7.2,3.3-7.2,7.3C268.2,24.7,271.4,27.9,275.4,27.9z"/>
<linearGradient id="XMLID_271_" gradientUnits="userSpaceOnUse" x1="290.3126" y1="2.563" x2="297.2574" y2="32.6442">
	<stop  offset="0" style="stop-color:#93B5DF"/>
	<stop  offset="0.5424" style="stop-color:#6688C5"/>
	<stop  offset="1" style="stop-color:#416CB4"/>
</linearGradient>
<path id="XMLID_182_" class="st11" d="M295.3,2.5v20.3c0,2.6,0.6,3.6,2,4.4l2.6,1.5l-2.2,3.8c-5-2.4-7.3-4.1-7.3-8.8V2.5H295.3z"/>
<path id="XMLID_181_" class="st4" d="M223.1,18.6c3.2,6.5,2.9,13.2-0.8,15c-3.7,1.8-9.3-1.9-12.5-8.4c-3.2-6.5-2.9-13.2,0.8-15
	C214.3,8.4,219.9,12.2,223.1,18.6L223.1,18.6z"/>
<path id="XMLID_180_" class="st5" d="M221.4,19.5c2.2,4.4,2.1,9-0.3,10.2c-2.4,1.2-6.1-1.4-8.4-5.9c-2.2-4.4-2.1-9,0.3-10.2
	C215.4,12.4,219.2,15.1,221.4,19.5L221.4,19.5z"/>
<path id="XMLID_179_" class="st12" d="M219.3,20.5c-1.1-2.2-2.9-3.5-4.1-2.9c-1.2,0.6-1.2,2.8-0.1,5c1.1,2.2,2.9,3.5,4.1,2.9
	C220.3,24.9,220.4,22.7,219.3,20.5L219.3,20.5z"/>
<g id="XMLID_2_">
	<g id="XMLID_172_">
		<g id="XMLID_177_">
			<polygon id="XMLID_178_" points="220.8,22.3 218.4,25.7 216.1,25.3 218.5,21.9 			"/>
		</g>
		<g id="XMLID_175_">
			<polygon id="XMLID_176_" points="218.5,21.9 216.1,25.3 215.9,24.2 218.4,20.8 			"/>
		</g>
		<g id="XMLID_173_">
			<polygon id="XMLID_174_" points="220.7,21.2 220.8,22.3 218.5,21.9 218.4,20.8 			"/>
		</g>
	</g>
	<g id="XMLID_3_">
		<g id="XMLID_170_">
			<polygon id="XMLID_171_" points="230.8,31.4 228.3,34.8 227.2,34.6 229.7,31.2 			"/>
		</g>
		<g id="XMLID_168_">
			<polygon id="XMLID_169_" points="229.7,31.2 227.2,34.6 227.1,33.6 229.6,30.2 			"/>
		</g>
		<g id="XMLID_166_">
			<polygon id="XMLID_167_" points="230.9,32.4 228.4,35.8 228.3,34.8 230.8,31.4 			"/>
		</g>
		<g id="XMLID_164_">
			<polygon id="XMLID_165_" points="232,32.6 229.5,36 228.4,35.8 230.9,32.4 			"/>
		</g>
		<g id="XMLID_162_">
			<polygon id="XMLID_163_" points="230,34.1 227.6,37.6 227.2,34.6 229.7,31.2 			"/>
		</g>
		<g id="XMLID_160_">
			<polygon id="XMLID_161_" points="228.8,33.9 226.3,37.3 225.9,33.4 228.3,30 			"/>
		</g>
		<g id="XMLID_158_">
			<polygon id="XMLID_159_" points="228.4,30 225.9,33.4 225.9,33.4 228.3,30 			"/>
		</g>
		<g id="XMLID_156_">
			<polygon id="XMLID_157_" points="230.7,30.4 230.8,31.4 229.7,31.2 229.6,30.2 			"/>
		</g>
		<g id="XMLID_154_">
			<polygon id="XMLID_155_" points="231.9,31.6 232,32.6 230.9,32.4 230.8,31.4 			"/>
		</g>
		<g id="XMLID_152_">
			<polygon id="XMLID_153_" points="226,29.6 223.6,33 223.4,31.7 225.9,28.3 			"/>
		</g>
		<g id="XMLID_150_">
			<polygon id="XMLID_151_" points="228.3,30 225.9,33.4 223.6,33 226,29.6 			"/>
		</g>
		<g id="XMLID_148_">
			<polygon id="XMLID_149_" points="228.2,28.8 228.4,30 228.3,30 226,29.6 225.9,28.3 			"/>
		</g>
		<g id="XMLID_146_">
			<polygon id="XMLID_147_" points="222.5,27.7 220.1,31.1 220,30 222.4,26.6 			"/>
		</g>
		<g id="XMLID_144_">
			<polygon id="XMLID_145_" points="224.8,28.1 222.4,31.5 220.1,31.1 222.5,27.7 			"/>
		</g>
		<g id="XMLID_142_">
			<polygon id="XMLID_143_" points="224.7,27.1 224.8,28.1 222.5,27.7 222.4,26.6 			"/>
		</g>
		<g id="XMLID_140_">
			<polygon id="XMLID_141_" points="230,34.1 227.6,37.6 226.3,37.3 228.8,33.9 			"/>
		</g>
		<g id="XMLID_138_">
			<polygon id="XMLID_139_" points="229.6,30.2 229.7,31.2 230,34.1 228.8,33.9 228.3,30 228.4,30 			"/>
		</g>
		<g id="XMLID_136_">
			<polygon id="XMLID_137_" points="226.4,32.5 223.9,35.9 223.6,33 226,29.6 			"/>
		</g>
		<g id="XMLID_134_">
			<polygon id="XMLID_135_" points="225.3,32.3 222.8,35.7 222.4,31.5 224.8,28.1 			"/>
		</g>
		<g id="XMLID_132_">
			<polygon id="XMLID_133_" points="226.4,32.5 223.9,35.9 222.8,35.7 225.3,32.3 			"/>
		</g>
		<g id="XMLID_130_">
			<polygon id="XMLID_131_" points="225.9,28.3 226,29.6 226.4,32.5 225.3,32.3 224.8,28.1 			"/>
		</g>
		<g id="XMLID_128_">
			<polygon id="XMLID_129_" points="223,31.8 220.5,35.2 220.1,31.1 222.5,27.7 			"/>
		</g>
		<g id="XMLID_126_">
			<polygon id="XMLID_127_" points="221.9,31.6 219.4,35 218.4,25.7 220.8,22.3 			"/>
		</g>
		<g id="XMLID_124_">
			<polygon id="XMLID_125_" points="222,22.5 222.4,26.6 222.5,27.7 223,31.8 221.9,31.6 220.8,22.3 			"/>
		</g>
		<g id="XMLID_122_">
			<polygon id="XMLID_123_" points="223,31.8 220.5,35.2 219.4,35 221.9,31.6 			"/>
		</g>
		<g id="XMLID_120_">
			<polygon id="XMLID_121_" points="234.1,39.9 231.6,43.3 230.4,43 232.8,39.6 			"/>
		</g>
		<g id="XMLID_118_">
			<polygon id="XMLID_119_" points="232.8,39.6 230.4,43 230.3,43 232.8,39.6 			"/>
		</g>
		<g id="XMLID_116_">
			<polygon id="XMLID_117_" points="233.3,32.9 234.1,39.9 232.8,39.6 232.8,39.6 232,32.6 			"/>
		</g>
		<g id="XMLID_114_">
			<polygon id="XMLID_115_" points="232.8,39.6 230.3,43 229.5,36 232,32.6 			"/>
		</g>
		<g id="XMLID_112_">
			<polygon id="XMLID_113_" points="232.8,39.6 230.3,43 229.2,42.8 231.6,39.4 			"/>
		</g>
		<g id="XMLID_110_">
			<polygon id="XMLID_111_" points="220,35.3 217.5,38.7 216,25.3 218.5,21.9 			"/>
		</g>
		<g id="XMLID_108_">
			<polygon id="XMLID_109_" points="218.2,30.9 215.8,34.3 214.7,25.1 217.2,21.7 			"/>
		</g>
		<g id="XMLID_106_">
			<polygon id="XMLID_107_" points="218.3,31.8 215.9,35.3 215.8,34.3 218.2,30.9 			"/>
		</g>
		<g id="XMLID_104_">
			<polygon id="XMLID_105_" points="217.3,31.6 214.8,35.1 214.7,34.1 217.2,30.7 			"/>
		</g>
		<g id="XMLID_102_">
			<polygon id="XMLID_103_" points="218.3,31.8 215.9,35.3 214.8,35.1 217.3,31.6 			"/>
		</g>
		<g id="XMLID_100_">
			<polygon id="XMLID_101_" points="218.2,30.9 218.3,31.8 217.3,31.6 217.2,30.7 			"/>
		</g>
		<g id="XMLID_98_">
			<polygon id="XMLID_99_" points="233.2,42.9 230.7,46.3 229.5,46.1 232,42.7 			"/>
		</g>
		<g id="XMLID_96_">
			<polygon id="XMLID_97_" points="232.8,39.6 233.2,42.9 232,42.7 231.6,39.4 232.8,39.6 			"/>
		</g>
		<g id="XMLID_94_">
			<polygon id="XMLID_95_" points="232,42.7 229.5,46.1 229.2,42.8 231.6,39.4 			"/>
		</g>
		<g id="XMLID_92_">
			<polygon id="XMLID_93_" points="217.1,29.7 217.2,30.7 214.8,30.3 214.7,29.2 			"/>
		</g>
		<g id="XMLID_90_">
			<polygon id="XMLID_91_" points="217.2,30.7 214.7,34.1 212.3,33.7 214.8,30.3 			"/>
		</g>
		<g id="XMLID_88_">
			<polygon id="XMLID_89_" points="214.8,30.3 212.3,33.7 212.2,32.6 214.7,29.2 			"/>
		</g>
		<g id="XMLID_86_">
			<polygon id="XMLID_87_" points="232,42.7 229.5,46.1 228.4,45.9 230.9,42.5 			"/>
		</g>
		<g id="XMLID_84_">
			<polygon id="XMLID_85_" points="215,32.2 212.6,35.7 212.3,33.7 214.8,30.3 			"/>
		</g>
		<g id="XMLID_82_">
			<polygon id="XMLID_83_" points="216.2,32.5 213.7,35.9 212.6,35.7 215,32.2 			"/>
		</g>
		<g id="XMLID_80_">
			<polygon id="XMLID_81_" points="220,35.3 217.5,38.7 216.2,38.5 218.7,35.1 			"/>
		</g>
		<g id="XMLID_78_">
			<polygon id="XMLID_79_" points="218.7,35.1 216.2,38.5 215.9,35.3 218.3,31.8 			"/>
		</g>
		<g id="XMLID_76_">
			<polygon id="XMLID_77_" points="218.5,21.9 220,35.3 218.7,35.1 218.3,31.8 218.2,30.9 217.2,21.7 			"/>
		</g>
		<g id="XMLID_74_">
			<polygon id="XMLID_75_" points="216.3,33.5 213.8,36.9 213.7,35.9 216.2,32.5 			"/>
		</g>
		<g id="XMLID_72_">
			<polygon id="XMLID_73_" points="217.4,33.7 214.9,37.1 213.8,36.9 216.3,33.5 			"/>
		</g>
		<g id="XMLID_70_">
			<polygon id="XMLID_71_" points="215,32.2 212.6,35.7 211.4,35.4 213.9,32 			"/>
		</g>
		<g id="XMLID_68_">
			<polygon id="XMLID_69_" points="213.9,32 211.4,35.4 211.1,32.4 213.6,29 			"/>
		</g>
		<g id="XMLID_66_">
			<polygon id="XMLID_67_" points="214.7,29.2 214.8,30.3 215,32.2 213.9,32 213.6,29 			"/>
		</g>
		<g id="XMLID_64_">
			<polygon id="XMLID_65_" points="231.1,44.5 228.6,47.9 228.4,45.9 230.9,42.5 			"/>
		</g>
		<g id="XMLID_62_">
			<polygon id="XMLID_63_" points="216.3,33.5 213.8,36.9 212.7,36.6 215.1,33.2 			"/>
		</g>
		<g id="XMLID_60_">
			<polygon id="XMLID_61_" points="215.1,33.2 212.7,36.6 212.6,35.7 215,32.2 			"/>
		</g>
		<g id="XMLID_58_">
			<polygon id="XMLID_59_" points="216.2,32.5 216.3,33.5 215.1,33.2 215,32.2 			"/>
		</g>
		<g id="XMLID_56_">
			<polygon id="XMLID_57_" points="232,42.7 232.3,45.7 231.2,45.4 231.1,44.5 230.9,42.5 			"/>
		</g>
		<g id="XMLID_54_">
			<polygon id="XMLID_55_" points="231.2,45.4 228.8,48.9 228.6,47.9 231.1,44.5 			"/>
		</g>
		<g id="XMLID_52_">
			<polygon id="XMLID_53_" points="232.3,45.7 229.9,49.1 228.8,48.9 231.2,45.4 			"/>
		</g>
		<g id="XMLID_50_">
			<polygon id="XMLID_51_" points="218.9,36.1 216.4,39.5 215.2,39.3 217.6,35.8 			"/>
		</g>
		<g id="XMLID_48_">
			<polygon id="XMLID_49_" points="217.6,35.8 215.2,39.3 214.9,37.1 217.4,33.7 			"/>
		</g>
		<g id="XMLID_46_">
			<polygon id="XMLID_47_" points="217.6,35.8 215.2,39.3 214,39 216.5,35.6 			"/>
		</g>
		<g id="XMLID_44_">
			<polygon id="XMLID_45_" points="216.5,35.6 214,39 213.8,36.9 216.3,33.5 			"/>
		</g>
		<g id="XMLID_42_">
			<polygon id="XMLID_43_" points="217.4,33.7 217.6,35.8 216.5,35.6 216.3,33.5 			"/>
		</g>
		<g id="XMLID_40_">
			<polygon id="XMLID_41_" points="219.1,38.1 216.6,41.5 216.4,39.5 218.9,36.1 			"/>
		</g>
		<g id="XMLID_38_">
			<polygon id="XMLID_39_" points="220.2,38.3 217.7,41.7 216.6,41.5 219.1,38.1 			"/>
		</g>
		<g id="XMLID_36_">
			<polygon id="XMLID_37_" points="219.1,38.1 216.6,41.5 215.4,41.2 217.8,37.8 			"/>
		</g>
		<g id="XMLID_34_">
			<polygon id="XMLID_35_" points="218.9,36.1 219.1,38.1 217.8,37.8 217.6,35.8 			"/>
		</g>
		<g id="XMLID_32_">
			<polygon id="XMLID_33_" points="217.8,37.8 215.4,41.2 215.2,39.3 217.6,35.8 			"/>
		</g>
		<g id="XMLID_30_">
			<polygon id="XMLID_31_" points="220.4,40.4 217.9,43.9 217.7,41.7 220.2,38.3 			"/>
		</g>
		<g id="XMLID_28_">
			<polygon id="XMLID_29_" points="221.8,40.7 219.3,44.1 217.9,43.9 220.4,40.4 			"/>
		</g>
		<g id="XMLID_26_">
			<polygon id="XMLID_27_" points="220.2,38.3 220.4,40.4 219.3,40.2 219.1,38.1 			"/>
		</g>
		<g id="XMLID_24_">
			<polygon id="XMLID_25_" points="220.4,40.4 217.9,43.9 216.9,43.7 219.3,40.2 			"/>
		</g>
		<g id="XMLID_22_">
			<polygon id="XMLID_23_" points="219.3,40.2 216.9,43.7 216.6,41.5 219.1,38.1 			"/>
		</g>
		<g id="XMLID_20_">
			<polygon id="XMLID_21_" points="231.1,44.5 228.6,47.9 219.6,46.2 222,42.8 			"/>
		</g>
		<g id="XMLID_18_">
			<polygon id="XMLID_19_" points="222,42.8 219.6,46.2 219.3,44.1 221.8,40.7 			"/>
		</g>
		<g id="XMLID_16_">
			<polygon id="XMLID_17_" class="st3" points="220.8,22.3 221.9,31.6 223,31.8 222.5,27.7 224.8,28.1 225.3,32.3 226.4,32.5 
				226,29.6 228.3,30 228.8,33.9 230,34.1 229.7,31.2 230.8,31.4 230.9,32.4 232,32.6 232.8,39.6 231.6,39.4 232,42.7 230.9,42.5 
				231.1,44.5 222,42.8 221.8,40.7 220.4,40.4 220.2,38.3 219.1,38.1 218.9,36.1 217.6,35.8 217.4,33.7 216.3,33.5 216.2,32.5 
				215,32.2 214.8,30.3 217.2,30.7 217.3,31.6 218.3,31.8 218.7,35.1 220,35.3 218.5,21.9 218.5,21.9 			"/>
		</g>
		<g id="XMLID_14_">
			<polygon id="XMLID_15_" points="222.1,43.7 219.7,47.1 219.6,46.2 222,42.8 			"/>
		</g>
		<g id="XMLID_12_">
			<polygon id="XMLID_13_" points="231.2,45.4 228.8,48.9 219.7,47.1 222.1,43.7 			"/>
		</g>
		<g id="XMLID_10_">
			<polygon id="XMLID_11_" points="231.1,44.5 231.2,45.4 222.1,43.7 222,42.8 			"/>
		</g>
		<g id="XMLID_8_">
			<polygon id="XMLID_9_" points="221.8,40.7 222,42.8 222.1,43.7 220.7,43.4 220.4,40.4 			"/>
		</g>
		<g id="XMLID_6_">
			<polygon id="XMLID_7_" points="222.1,43.7 219.7,47.1 218.3,46.8 220.7,43.4 			"/>
		</g>
		<g id="XMLID_4_">
			<polygon id="XMLID_5_" points="220.7,43.4 218.3,46.8 217.9,43.9 220.4,40.4 			"/>
		</g>
	</g>
</g>
</svg>
