<?xml version="1.0" encoding="utf-8"?>
<!-- Generator: Adobe Illustrator 19.0.0, SVG Export Plug-In . SVG Version: 6.00 Build 0)  -->
<svg version="1.1" id="Layer_1" xmlns="http://www.w3.org/2000/svg" xmlns:xlink="http://www.w3.org/1999/xlink" x="0px" y="0px"
	 viewBox="0 0 37.1 31.1" style="enable-background:new 0 0 37.1 31.1;" xml:space="preserve">
<style type="text/css">
	.st0{fill:none;stroke:#FFFFFF;stroke-width:1.44;stroke-linecap:round;stroke-linejoin:round;stroke-miterlimit:22.9256;}
</style>
<path class="st0" d="M25.9,28.6c0,0.9-0.8,1.7-1.7,1.7c-0.7,0-1.2-0.4-1.5-1v0L19.4,24c-0.6-1.1-1.4-2.6-3.3-1.4
	c-0.7,0.5-1.6,0.6-2.5,0.6c-2.7,0-4.9-2-5.3-4.6c-0.5,0.2-1,0.3-1.6,0.3c-2.1,0-3.8-1.6-4-3.7c-1.2-0.7-2.1-2-2.1-3.6
	c0-2.3,1.8-4.1,4-4.1c0.1,0,0.1,0,0.2,0C4.7,7.2,4.6,6.8,4.6,6.3c0-1.7,1.4-3.2,3.1-3.2c0.4,0,0.8,0.1,1.1,0.2
	c0.9-1.6,2.6-2.6,4.5-2.6c1.1,0,2.1,0.4,3,1c0.6-0.6,1.3-1,2.2-1c0.9,0,1.8,0.4,2.3,1.1c0.6-0.3,1.3-0.4,2-0.4
	c1.3,0,2.5,0.5,3.4,1.4c0.3-0.1,0.6-0.1,0.9-0.1c1.7,0,3,1.3,3.1,3c0.2,0,0.3,0,0.5,0c1.7,0,3,1.4,3,3.1c0,0.2,0,0.3,0,0.5
	c1.6,0.6,2.7,2.1,2.7,3.9c0,0.9-0.3,1.7-0.7,2.3c0.2,0.5,0.3,1.1,0.3,1.7c0,2.9-2.3,5.2-5.1,5.2c-0.1,0-0.1,0-0.2,0
	c0,0.1,0,0.2,0,0.3c0.2,1.6-0.9,3-2.1,3c-1.1,0-1.4-0.8-2.3-0.3c-0.6,0.3-0.9,0.9-0.9,1.5C25.4,27.6,25.9,27.8,25.9,28.6L25.9,28.6z
	 M35.5,15.6c-0.6,0.5-1.3,0.8-2.2,0.8c-1.8,0-3.3-1.5-3.3-3.4 M30.4,11.4c0,1.7-1.3,3.1-3,3.1c-0.6,0-1.2-0.2-1.7-0.5 M33.8,21.3
	c-0.6,0.4-1.4,0.7-2.3,0.6c-1.8-0.2-3.1-1.9-2.8-3.8 M9.5,13.4c0.5,0.7,0.7,1.6,0.6,2.5c-0.2,2-2,3.3-3.9,3.1 M14.3,10.2
	c0,0.8-0.3,1.6-0.9,2.2c-1.2,1.4-3.3,1.5-4.7,0.2 M20.3,6.9c0.5,0.3,0.9,0.8,1,1.4c0.4,1.3-0.3,2.7-1.5,3.1 M25.2,6.8
	c-0.5-0.3-1-0.5-1.6-0.4c-1.3,0.1-2.2,1.3-2.1,2.7 M19.3,11.3c0.4,0.7,0.6,1.5,0.5,2.3c-0.3,1.8-1.9,3-3.7,2.7 M28.2,18.2
	c-0.5,0.7-1.3,1.1-2.2,1.3c-1.3,0.2-2.5-0.3-3.2-1.2 M30.2,24.9c-0.5,0.4-1.1,0.7-1.8,0.7c-1.5,0-2.7-1.2-2.7-2.8 M3.1,16.4
	c-0.7-1.1-0.5-2.6,0.6-3.4"/>
</svg>
