<?xml version="1.0" encoding="utf-8"?>
<!-- Generator: Adobe Illustrator 19.0.0, SVG Export Plug-In . SVG Version: 6.00 Build 0)  -->
<svg version="1.1" id="Layer_1" xmlns="http://www.w3.org/2000/svg" xmlns:xlink="http://www.w3.org/1999/xlink" x="0px" y="0px"
	 viewBox="0 0 36.1 32.8" style="enable-background:new 0 0 36.1 32.8;" xml:space="preserve">
<style type="text/css">
	.st0{fill:none;stroke:#FFFFFF;stroke-width:1.44;stroke-linecap:round;stroke-linejoin:round;stroke-miterlimit:22.9256;}
	.st1{fill:none;stroke:#FFFFFF;stroke-width:1.44;stroke-miterlimit:22.9256;}
</style>
<path id="XMLID_37_" class="st0" d="M31,18.9l2.2-2.2c3.8-3.8,1.9-9-1.1-12.3c-1-1.1-2.2-2-3.4-2.7c-1.6-0.9-6.5-2.2-9.7,1l-6.7,6.6
	c-1.8,1.8,2.7,3.5,5,1.3l1.7-1.7c2.5-2.2,5.6,2.3,9.5-0.8"/>
<path id="XMLID_36_" class="st0" d="M5.2,17.9l-2.2-2.2C-4.4,8.3,8.3-4.3,15.8,3l1.5,1.5"/>
<path id="XMLID_35_" class="st0" d="M22.7,10.5l8.6,9c1.7,1.8-0.8,5.3-3.1,3l-4-4.1"/>
<path id="XMLID_34_" class="st0" d="M20.6,21.2l4.4,4.5c1.8,1.8,5.3-0.9,3.1-3.2l-4.3-4.5"/>
<path id="XMLID_33_" class="st0" d="M19.3,26.2l2.2,2.2c1.8,1.8,5.2-0.8,3-3.1"/>
<path id="XMLID_28_" class="st1" d="M10.4,16.1l0.2,0.2c0.8,0.8,0.8,2.1,0,2.9l-3.1,3.1c-0.8,0.8-2.1,0.8-2.9,0L4.5,22
	c-0.8-0.8-0.8-2.1,0-2.9l3.1-3.1C8.3,15.3,9.6,15.3,10.4,16.1L10.4,16.1z M15.5,17.5l0.2,0.2c0.8,0.8,0.8,2.1,0,2.9l-4.9,4.9
	c-0.8,0.8-2.1,0.8-2.9,0l-0.2-0.2c-0.8-0.8-0.8-2.1,0-2.9l4.9-4.9C13.4,16.7,14.7,16.7,15.5,17.5L15.5,17.5z M17.5,22l0.2,0.2
	c0.8,0.8,0.8,2.1,0,2.9l-3.3,3.3c-0.8,0.8-2.1,0.8-2.9,0l-0.2-0.2c-0.8-0.8-0.8-2.1,0-2.9l3.3-3.3C15.4,21.2,16.7,21.2,17.5,22
	L17.5,22z M19.7,26.3l0.2,0.2c0.8,0.8,0.8,2.1,0,2.9l-2,2c-0.8,0.8-2.1,0.8-2.9,0l-0.2-0.2c-0.8-0.8-0.8-2.1,0-2.9l2-2
	C17.6,25.5,18.9,25.5,19.7,26.3L19.7,26.3z"/>
</svg>
