<?xml version="1.0" encoding="utf-8"?>
<!-- Generator: Adobe Illustrator 19.0.0, SVG Export Plug-In . SVG Version: 6.00 Build 0)  -->
<svg version="1.1" id="Layer_1" xmlns="http://www.w3.org/2000/svg" xmlns:xlink="http://www.w3.org/1999/xlink" x="0px" y="0px"
	 viewBox="0 0 36.1 32.8" style="enable-background:new 0 0 36.1 32.8;" xml:space="preserve">
<style type="text/css">
	.st0{fill:none;stroke:#FFFFFF;stroke-width:1.3092;stroke-linecap:round;stroke-linejoin:round;stroke-miterlimit:22.9256;}
</style>
<path id="XMLID_52_" class="st0" d="M14.2,24.2c-0.3-5.2-4.3-2.6-4.8-9.6c-0.3-4.4,3.8-8,8.5-8s8.9,3.6,8.5,8
	c-0.4,6-3.4,4.8-4.5,7.9"/>
<line id="XMLID_51_" class="st0" x1="14.3" y1="30.4" x2="22" y2="28.4"/>
<line id="XMLID_50_" class="st0" x1="14.3" y1="27.5" x2="22" y2="25.5"/>
<line id="XMLID_37_" class="st0" x1="14.3" y1="24.6" x2="22" y2="22.6"/>
<path id="XMLID_36_" class="st0" d="M20.7,29.4c0,1.3-1.2,2.4-2.8,2.4c-1,0-1.8-0.4-2.3-1.1"/>
<line id="XMLID_35_" class="st0" x1="18.2" y1="1" x2="18.2" y2="3.6"/>
<line id="XMLID_34_" class="st0" x1="27.6" y1="4.6" x2="25.7" y2="6.4"/>
<line id="XMLID_33_" class="st0" x1="31.8" y1="14.7" x2="29.3" y2="14.7"/>
<line id="XMLID_32_" class="st0" x1="27.2" y1="24.3" x2="25.4" y2="22.5"/>
<line id="XMLID_31_" class="st0" x1="8.6" y1="4.6" x2="10.5" y2="6.4"/>
<line id="XMLID_30_" class="st0" x1="4" y1="14.1" x2="6.6" y2="14.1"/>
<line id="XMLID_29_" class="st0" x1="8.3" y1="24.3" x2="10.1" y2="22.5"/>
<polyline id="XMLID_28_" class="st0" points="14.8,16 17.6,19.9 21.9,12.4 "/>
</svg>
